{"glyphs":{"0":{"ha":896,"x_min":0,"x_max":0,"o":"m 447 -12 b 49 500 161 -12 49 238 b 447 1013 49 763 161 1013 b 847 500 735 1013 847 763 b 447 -12 847 238 735 -12 m 447 929 b 243 500 274 929 243 724 b 447 71 243 276 274 71 b 653 500 624 71 653 276 b 447 929 653 724 622 929 "},"1":{"ha":631,"x_min":0,"x_max":0,"o":"m 253 117 l 253 799 l 28 781 l 369 1004 l 419 1042 l 418 110 l 596 0 l 40 0 "},"2":{"ha":724,"x_min":0,"x_max":0,"o":"m 97 139 b 439 674 303 358 429 483 b 261 882 439 819 343 882 b 36 685 153 882 58 811 b 331 1018 17 896 142 1018 b 625 735 499 1018 625 894 b 189 139 625 510 407 361 l 517 139 l 678 308 l 635 139 l 636 139 l 622 90 l 614 54 l 613 54 l 601 13 l 603 13 l 588 -50 l 542 0 l -31 0 "},"3":{"ha":783,"x_min":0,"x_max":0,"o":"m 31 233 b 126 329 31 286 75 329 b 222 233 178 329 222 286 b 135 138 222 183 183 142 b 292 67 161 96 218 67 b 533 286 414 67 533 143 b 275 543 533 417 488 543 l 232 543 l 232 604 l 306 604 l 358 604 b 485 775 422 633 485 693 b 329 931 485 878 408 931 b 89 764 221 931 139 860 b 382 1025 79 921 197 1025 b 660 807 538 1025 660 944 b 489 600 660 703 575 633 b 728 322 635 574 728 447 b 335 -14 728 121 558 -14 b 78 110 207 -14 125 43 b 33 210 54 143 36 176 b 31 233 31 218 31 225 "},"4":{"ha":819,"x_min":0,"x_max":0,"o":"m 44 335 l 67 363 l 511 926 l 639 1093 l 638 363 l 776 363 l 776 263 l 638 263 l 638 103 l 785 0 l 257 0 l 472 119 l 472 263 l 24 263 l 24 308 m 472 363 l 472 758 l 154 363 "},"5":{"ha":744,"x_min":0,"x_max":0,"o":"m 157 997 l 171 997 l 171 999 l 576 999 l 689 1113 l 671 999 l 647 846 l 207 846 l 186 682 b 301 689 226 688 271 689 b 686 363 508 682 679 585 b 319 -14 693 131 532 -14 b 51 161 167 -14 82 81 b 36 211 42 176 36 193 b 128 307 33 264 76 307 b 224 211 178 307 221 264 b 150 117 226 164 193 125 b 290 67 186 82 243 67 b 529 308 439 67 535 167 b 265 529 524 465 389 528 b 93 492 226 529 132 521 l 115 664 "},"6":{"ha":779,"x_min":0,"x_max":0,"o":"m 432 621 b 738 338 624 621 738 514 b 392 -12 738 122 579 -12 b 49 389 121 -12 49 185 b 246 821 49 563 174 743 b 638 1019 336 918 511 1035 b 339 739 535 971 399 835 b 261 560 310 693 281 636 b 432 621 310 599 375 621 m 239 367 b 406 57 239 228 246 57 b 547 288 497 57 547 139 b 385 540 547 435 492 540 b 240 428 322 540 264 510 b 239 367 239 408 239 388 "},"7":{"ha":633,"x_min":0,"x_max":0,"o":"m 588 865 l 585 865 l 586 863 l 264 0 l 50 0 l 503 865 l 94 865 l 0 708 b 14 897 0 708 7 822 l 13 1018 l 676 1018 "},"8":{"ha":774,"x_min":0,"x_max":0,"o":"m 58 239 b 240 504 58 360 135 451 b 82 767 153 560 82 632 b 381 1028 82 893 213 1028 b 676 793 561 1028 676 926 b 500 572 676 703 608 626 b 722 267 614 504 722 422 b 390 -15 722 97 560 -15 b 58 239 185 -15 58 90 m 544 231 b 299 471 544 360 419 407 b 206 253 231 408 206 333 b 388 57 206 147 263 57 b 544 231 472 57 544 122 m 243 833 b 442 606 243 726 336 667 b 542 783 506 663 542 728 b 382 964 542 864 493 964 b 243 833 303 964 243 908 "},"9":{"ha":779,"x_min":0,"x_max":0,"o":"m 347 379 b 42 663 156 379 42 486 b 388 1013 42 878 200 1013 b 731 611 658 1013 731 815 b 533 179 731 438 606 257 b 221 -14 464 104 328 13 b 200 36 165 -28 138 3 b 522 443 322 101 472 197 b 347 379 474 401 406 379 m 540 633 b 374 943 540 772 533 943 b 232 713 282 943 232 861 b 394 460 232 565 288 460 b 539 574 457 460 515 490 b 540 633 539 593 540 613 "},"R":{"ha":1026,"x_min":0,"x_max":0,"o":"m 179 111 l 179 885 l 35 997 l 288 997 b 618 999 288 997 471 999 b 906 751 799 999 906 882 b 650 481 906 640 853 535 l 1047 -64 b 400 471 807 -62 553 319 l 374 471 l 374 117 l 525 0 l 35 0 m 374 926 l 374 532 b 699 731 531 532 699 532 b 615 900 699 807 669 874 b 413 926 564 928 499 926 "},"E":{"ha":986,"x_min":0,"x_max":0,"o":"m 678 918 l 374 918 l 374 551 l 553 551 l 683 746 l 683 272 l 553 467 l 374 467 l 374 86 l 736 86 l 958 401 l 903 0 l 35 0 l 179 111 l 179 885 l 35 997 l 883 997 l 911 624 "},"S":{"ha":889,"x_min":0,"x_max":0,"o":"m 458 1018 b 656 951 524 1018 601 988 l 765 1029 l 763 556 b 428 943 643 833 592 943 b 272 794 344 943 272 875 b 547 575 272 676 369 651 b 778 268 656 521 778 446 b 454 -8 778 115 660 -8 b 224 61 356 -8 279 21 l 114 -15 l 118 456 b 440 69 214 214 307 69 b 610 222 536 69 610 115 b 338 446 610 351 439 401 b 111 733 276 475 111 560 b 458 1018 111 933 271 1018 "},"N":{"ha":1132,"x_min":0,"x_max":0,"o":"m 969 888 l 969 -21 l 257 708 l 257 107 l 394 0 l 22 0 l 164 110 l 164 865 l 21 997 l 268 997 l 876 378 l 876 890 l 739 997 l 1111 997 "},"T":{"ha":975,"x_min":0,"x_max":0,"o":"m 376 111 l 376 921 l 221 921 l -12 626 l 15 1000 l 935 1000 l 963 626 l 729 921 l 571 921 l 571 117 l 722 0 l 232 0 "},"a":{"ha":738,"x_min":0,"x_max":0,"o":"m 463 474 b 326 619 457 568 396 619 b 200 583 285 619 219 611 b 275 478 260 560 275 525 b 179 381 275 424 229 381 b 85 493 118 381 85 429 b 350 686 85 575 207 686 l 372 686 b 621 444 493 686 621 631 b 619 110 621 388 619 174 l 725 0 l 497 0 l 463 107 b 232 -19 419 32 324 -19 b 63 139 103 -19 63 76 b 231 314 63 236 144 293 b 461 474 331 338 463 353 m 299 85 b 458 189 349 85 428 115 l 461 357 b 331 269 428 314 376 288 b 228 151 256 236 228 204 b 299 85 228 110 263 85 "},"n":{"ha":853,"x_min":0,"x_max":0,"o":"m 565 97 l 567 396 b 542 533 567 469 563 501 b 438 579 522 564 488 579 b 300 463 336 579 307 501 l 300 97 l 408 0 l 33 0 l 133 97 l 133 483 l 33 544 l 133 611 l 133 613 l 258 696 l 290 560 b 508 679 335 635 400 679 b 733 438 640 679 733 596 l 732 97 l 840 0 l 465 0 "},"r":{"ha":578,"x_min":0,"x_max":0,"o":"m 133 97 l 133 483 l 33 544 l 133 611 l 133 613 l 258 696 l 296 519 b 474 679 328 611 393 679 b 578 571 521 679 578 644 b 481 458 578 506 531 458 b 376 557 428 458 382 494 b 300 361 325 504 306 444 l 300 97 l 408 0 l 33 0 "},"t":{"ha":542,"x_min":0,"x_max":0,"o":"m 404 96 b 563 186 458 96 515 125 b 339 -14 557 49 446 -14 b 108 242 183 -14 108 83 l 110 576 l 13 576 l 13 665 l 82 665 l 219 931 l 274 931 l 274 665 l 507 665 l 507 576 l 276 576 l 275 265 b 404 96 275 174 283 96 "},"e":{"ha":722,"x_min":0,"x_max":0,"o":"m 382 -14 b 56 319 167 -14 56 149 b 390 679 56 514 188 679 b 679 429 506 679 665 622 l 681 429 l 681 417 l 681 401 l 681 360 l 213 360 b 443 126 218 219 306 126 b 675 256 540 126 621 168 b 382 -14 675 99 528 -14 m 369 614 b 213 429 294 614 214 547 l 503 429 b 369 614 503 539 457 614 "},"s":{"ha":642,"x_min":0,"x_max":0,"o":"m 303 686 b 439 647 350 686 403 668 l 547 707 l 549 422 b 432 567 518 478 483 526 b 313 611 400 594 350 611 b 197 528 246 611 197 582 b 335 438 197 485 251 458 b 572 200 479 401 572 358 b 340 -14 572 107 499 -14 b 178 26 268 -14 217 4 l 74 -25 l 72 285 b 217 97 117 217 154 146 b 343 63 256 68 293 63 b 447 147 389 63 447 90 b 286 257 447 226 351 243 b 75 476 156 285 75 340 b 303 686 75 613 181 686 "},"g":{"ha":735,"x_min":0,"x_max":0,"o":"m 74 446 b 386 679 74 588 208 679 l 396 679 b 354 850 364 736 354 813 b 383 942 354 888 364 919 b 467 983 401 967 432 983 b 571 879 525 983 571 938 b 467 775 571 821 525 775 b 411 790 446 775 426 781 b 426 719 413 767 418 743 b 447 675 432 703 439 688 b 672 446 588 656 672 569 b 403 213 672 311 564 222 l 324 164 b 599 51 428 124 533 83 b 700 -96 678 11 700 -37 b 343 -325 700 -214 550 -325 b 28 -154 175 -325 28 -267 b 283 19 28 -47 178 3 b 144 75 221 44 163 67 l 144 119 l 235 161 l 319 215 b 74 446 172 231 74 317 m 181 -132 b 367 -267 178 -207 267 -267 b 551 -158 474 -267 551 -221 b 438 -43 551 -100 488 -67 l 353 -7 b 181 -132 260 -18 182 -86 m 256 446 b 374 272 256 338 290 272 b 492 446 457 272 492 338 b 374 621 492 556 457 621 b 256 446 290 621 256 556 "},"f":{"ha":482,"x_min":0,"x_max":0,"o":"m 307 576 l 307 97 l 415 0 l 40 0 l 140 97 l 140 576 l 33 576 l 33 665 l 140 665 b 78 840 110 706 78 769 b 278 1047 78 974 167 1047 b 489 904 342 1047 435 1015 l 367 758 b 251 901 349 831 296 901 b 176 826 201 901 176 874 b 314 665 176 778 233 693 l 472 665 l 472 576 "},"l":{"ha":428,"x_min":0,"x_max":0,"o":"m 129 99 l 129 815 l 29 864 l 296 1042 l 294 97 l 403 0 l 28 0 "},"h":{"ha":840,"x_min":0,"x_max":0,"o":"m 425 579 b 288 465 326 579 296 504 l 288 97 l 396 0 l 21 0 l 122 99 l 122 815 l 22 864 l 289 1042 l 288 576 b 496 679 332 642 396 679 b 721 438 628 679 721 596 l 719 97 l 828 0 l 453 0 l 553 97 l 554 396 b 529 533 554 469 550 501 b 425 579 510 564 475 579 "},"u":{"ha":829,"x_min":0,"x_max":0,"o":"m 701 150 l 801 81 l 576 -32 l 544 101 b 333 -15 501 28 440 -15 b 111 226 201 -15 111 68 l 111 494 l 13 544 l 194 656 l 194 654 l 279 707 l 278 276 b 407 88 279 160 304 88 b 535 192 500 88 526 153 l 535 493 l 435 544 l 617 656 l 617 654 l 701 707 "},"i":{"ha":424,"x_min":0,"x_max":0,"o":"m 133 97 l 133 493 l 33 544 l 133 606 l 215 656 l 300 707 l 300 97 l 407 0 l 33 0 m 119 889 b 225 994 119 946 167 994 b 331 889 282 994 331 946 b 225 783 331 831 282 783 b 119 889 167 783 119 831 "},"b":{"ha":843,"x_min":0,"x_max":0,"o":"m 111 815 l 11 864 l 278 1042 l 276 583 b 483 676 326 649 410 676 b 786 340 632 676 786 571 b 401 -18 786 154 629 -18 b 226 32 346 -18 281 -6 l 111 -56 m 390 553 b 276 519 363 553 317 550 l 276 240 b 431 51 278 111 333 51 b 614 276 543 51 614 150 b 390 553 614 464 514 553 "},"c":{"ha":715,"x_min":0,"x_max":0,"o":"m 388 -14 b 56 311 188 -14 56 126 b 418 679 56 533 207 679 b 653 485 549 679 653 597 b 553 378 653 429 617 378 b 454 479 501 378 454 410 b 403 614 454 535 486 614 b 213 389 299 614 213 522 b 444 126 213 219 310 126 b 674 257 531 126 628 165 b 388 -14 674 100 526 -14 "},"d":{"ha":860,"x_min":0,"x_max":0,"o":"m 360 -18 b 57 318 211 -18 57 88 b 442 676 57 504 214 676 b 565 653 481 676 524 669 l 565 815 l 465 864 l 682 1008 l 682 1007 l 732 1042 l 732 150 l 832 81 l 607 -32 l 574 88 b 360 -18 526 14 438 -18 m 453 106 b 565 138 481 106 526 108 l 565 451 b 413 607 556 557 501 607 b 229 382 300 607 229 508 b 453 106 229 194 329 106 "},"H":{"ha":1176,"x_min":0,"x_max":0,"o":"m 796 111 l 796 465 l 374 465 l 374 117 l 525 0 l 35 0 l 179 111 l 179 885 l 35 997 l 525 997 l 374 879 l 374 544 l 796 544 l 796 885 l 651 997 l 1142 997 l 990 879 l 990 117 l 1142 0 l 651 0 "},"I":{"ha":560,"x_min":0,"x_max":0,"o":"m 374 879 l 374 117 l 525 0 l 35 0 l 179 111 l 179 885 l 35 997 l 525 997 "},"F":{"ha":883,"x_min":0,"x_max":0,"o":"m 179 111 l 179 885 l 35 997 l 883 997 l 911 624 l 678 918 l 374 918 l 374 538 l 553 538 l 683 732 l 683 258 l 553 453 l 374 453 l 374 117 l 525 0 l 35 0 "},"O":{"ha":1126,"x_min":0,"x_max":0,"o":"m 1063 499 b 563 -32 1064 175 868 -26 b 63 496 258 -28 63 172 b 563 1026 63 810 263 1026 b 1063 499 879 1026 1061 796 m 563 944 b 281 497 357 946 281 722 b 563 50 281 271 356 50 b 844 497 768 50 844 272 b 563 944 844 721 768 943 "},"B":{"ha":1008,"x_min":0,"x_max":0,"o":"m 179 111 l 179 885 l 35 997 l 288 997 b 596 999 288 997 449 999 b 883 765 776 999 883 896 b 657 517 883 660 836 572 b 939 258 815 504 939 425 b 608 0 939 125 833 0 l 35 0 m 374 475 l 374 71 l 504 71 b 732 265 622 74 732 132 b 446 475 732 400 628 475 m 374 926 l 374 546 b 676 731 524 546 676 554 b 593 900 676 807 647 874 b 390 926 542 928 476 926 "},"A":{"ha":1039,"x_min":0,"x_max":0,"o":"m 94 113 l 471 1010 l 544 1010 l 908 89 l 1011 0 l 549 0 l 683 104 l 614 290 l 269 290 l 189 92 l 308 0 l -22 0 m 301 369 l 585 369 l 449 732 "},"C":{"ha":1040,"x_min":0,"x_max":0,"o":"m 943 -42 l 797 72 b 542 -25 721 0 633 -25 b 69 468 254 -25 69 188 b 576 1019 69 818 272 1019 b 804 924 646 1019 735 988 l 943 1032 l 943 581 b 569 924 821 769 749 924 b 288 511 403 924 288 750 b 572 67 288 272 374 67 b 943 410 768 67 871 306 "},"V":{"ha":1149,"x_min":0,"x_max":0,"o":"m 983 869 l 636 60 l 625 29 l 582 -72 l 143 886 l 0 997 l 490 997 l 367 901 l 636 263 l 900 900 l 776 997 l 1149 997 "},"P":{"ha":907,"x_min":0,"x_max":0,"o":"m 179 111 l 179 885 l 35 997 l 288 997 b 568 999 288 997 442 999 b 897 724 774 999 897 868 b 539 407 897 557 767 407 b 374 413 444 407 396 410 l 374 117 l 525 0 l 35 0 m 374 926 l 374 476 b 690 703 529 476 690 481 b 607 900 690 793 661 868 b 404 926 556 928 490 926 "},"Q":{"ha":1154,"x_min":0,"x_max":0,"o":"m 1083 499 b 858 44 1083 289 1000 132 l 1021 -317 b 644 -26 857 -278 788 -169 b 576 -32 622 -29 600 -31 b 69 496 269 -28 69 172 b 576 1026 69 810 274 1026 b 1083 499 896 1026 1082 796 m 576 944 b 288 497 368 946 288 722 b 576 50 288 271 367 50 b 865 497 785 50 865 272 b 576 944 865 721 785 943 "},"p":{"ha":863,"x_min":0,"x_max":0,"o":"m 503 676 b 806 340 651 676 806 571 b 421 -18 806 154 649 -18 b 297 4 382 -18 338 -11 l 297 -214 l 406 -312 l 31 -312 l 131 -214 l 131 483 l 31 544 l 131 611 l 131 613 l 256 696 l 289 572 b 503 676 336 644 425 676 m 410 553 b 297 519 382 553 336 550 l 297 207 b 450 51 307 100 361 51 b 633 276 563 51 633 150 b 410 553 633 464 533 553 "},"m":{"ha":1233,"x_min":0,"x_max":0,"o":"m 538 97 l 539 388 b 421 576 538 504 513 576 b 300 465 331 576 307 503 l 300 97 l 408 0 l 33 0 l 133 97 l 133 483 l 33 544 l 133 611 l 133 613 l 258 696 l 289 563 b 494 679 331 636 393 679 b 689 544 586 679 657 633 b 903 679 731 629 793 679 b 1114 438 1026 679 1114 596 l 1113 97 l 1221 0 l 846 0 l 946 97 l 947 388 b 829 576 946 504 921 576 b 706 443 710 576 706 443 l 706 438 l 704 97 l 813 0 l 438 0 "},"q":{"ha":833,"x_min":0,"x_max":0,"o":"m 360 -18 b 57 318 211 -18 57 88 b 442 676 57 504 214 676 b 611 629 494 676 558 665 l 732 706 l 732 -249 l 840 -347 l 651 -347 l 651 -346 l 640 -346 l 640 -347 l 465 -347 l 565 -249 l 565 75 b 360 -18 517 10 432 -18 m 453 106 b 565 139 481 106 526 108 l 567 414 b 413 607 567 546 511 607 b 229 382 300 607 229 508 b 453 106 229 194 329 106 "},"j":{"ha":415,"x_min":0,"x_max":0,"o":"m 35 -325 b 142 -19 89 -258 140 -228 l 142 501 l 42 544 l 142 606 l 224 656 l 308 707 l 308 0 b 35 -325 308 -260 146 -325 m 133 889 b 239 994 133 946 181 994 b 344 889 296 994 344 946 b 239 783 344 831 296 783 b 133 889 181 783 133 831 "},"v":{"ha":726,"x_min":0,"x_max":0,"o":"m 640 551 l 388 1 l 386 3 l 358 -60 l 75 557 l -68 665 l 349 665 l 253 586 l 411 213 l 567 567 l 475 665 l 608 665 l 608 661 l 610 665 l 794 665 "},"k":{"ha":785,"x_min":0,"x_max":0,"o":"m 122 99 l 122 815 l 22 864 l 289 1042 l 288 399 l 332 399 l 533 561 l 454 665 l 776 665 l 704 610 l 457 414 l 714 100 l 825 1 l 478 1 l 533 56 l 326 311 l 324 310 l 315 322 l 288 322 l 288 97 l 396 0 l 21 0 "},"o":{"ha":811,"x_min":0,"x_max":0,"o":"m 756 333 b 406 -14 756 118 615 -10 b 56 331 196 -11 56 117 b 406 679 56 539 199 679 b 756 333 624 679 754 529 m 406 614 b 249 332 282 615 249 481 b 406 53 249 183 282 53 b 563 332 528 53 563 183 b 406 614 563 479 528 613 "},"D":{"ha":1119,"x_min":0,"x_max":0,"o":"m 179 111 l 179 885 l 35 997 l 508 997 b 1050 496 785 997 1050 850 b 497 -3 1050 219 869 -3 b 256 0 260 -3 256 0 l 35 0 m 374 919 l 374 76 l 496 76 b 828 482 724 76 828 236 b 468 919 828 729 717 919 "},"M":{"ha":1424,"x_min":0,"x_max":0,"o":"m 1043 111 l 1043 817 l 729 163 l 693 85 l 643 -17 l 249 796 l 249 113 l 393 0 l 21 0 l 163 110 l 163 882 l 22 997 l 356 997 l 697 289 l 1043 997 l 1386 997 l 1238 878 l 1238 117 l 1389 0 l 899 0 "},"L":{"ha":1003,"x_min":0,"x_max":0,"o":"m 374 881 l 374 86 l 713 86 l 939 393 l 906 0 l 35 0 l 179 111 l 179 885 l 35 997 l 524 997 "},"J":{"ha":525,"x_min":0,"x_max":0,"o":"m 361 879 l 361 74 b 40 -311 361 -235 172 -311 b 167 51 104 -233 164 -196 l 167 885 l 22 997 l 513 997 "},"K":{"ha":1032,"x_min":0,"x_max":0,"o":"m 815 840 l 597 618 l 1071 -64 b 586 276 911 -64 706 126 l 440 457 l 374 390 l 374 117 l 525 0 l 35 0 l 179 111 l 179 885 l 35 997 l 525 997 l 374 879 l 374 494 l 750 886 l 678 999 l 1039 999 "},"U":{"ha":1118,"x_min":0,"x_max":0,"o":"m 974 893 l 974 431 b 574 -36 974 200 896 -36 b 158 397 250 -36 158 146 l 158 885 l 14 997 l 504 997 l 367 890 l 367 368 b 615 72 367 204 413 72 b 872 444 774 72 872 172 l 871 892 l 736 997 l 1108 997 "},"W":{"ha":1554,"x_min":0,"x_max":0,"o":"m 1428 875 l 1115 29 l 1078 -72 l 779 703 l 593 181 l 540 29 l 501 -72 l 118 890 l -10 1001 l 433 1001 l 324 907 l 549 300 l 731 828 l 699 910 l 593 1001 l 1050 1001 l 915 892 l 1128 293 l 1346 908 l 1239 1001 l 1575 1001 "},"X":{"ha":1057,"x_min":0,"x_max":0,"o":"m 163 126 l 181 150 l 436 479 l 179 864 l 8 997 l 499 997 l 375 900 l 563 618 l 758 894 l 646 997 l 1018 997 l 842 878 l 606 553 l 885 132 l 1057 0 l 567 0 l 690 96 l 481 411 l 247 97 l 372 1 l 0 1 "},"Y":{"ha":1019,"x_min":0,"x_max":0,"o":"m 429 111 l 429 376 l 153 878 l 0 997 l 490 997 l 363 897 l 590 485 l 819 888 l 679 997 l 1051 997 l 921 896 l 624 397 l 624 117 l 775 0 l 285 0 "}," ":{"ha":417,"x_min":0,"x_max":0,"o":""},"w":{"ha":1108,"x_min":0,"x_max":0,"o":"m 1022 553 l 850 131 l 771 -61 l 550 475 l 410 133 l 329 -61 l 74 558 l -54 665 l 328 665 l 240 588 l 375 225 l 510 571 l 429 665 l 768 665 l 681 588 l 815 224 l 950 571 l 869 665 l 1163 665 "},"x":{"ha":757,"x_min":0,"x_max":0,"o":"m 121 94 l 294 311 l 133 538 l -22 665 l 367 665 l 288 596 l 408 429 l 522 569 l 438 665 l 599 665 l 597 663 l 600 665 l 757 665 l 614 564 l 450 371 l 635 117 l 779 0 l 390 0 l 468 68 l 338 250 l 226 92 l 307 0 l -12 0 "},"y":{"ha":731,"x_min":0,"x_max":0,"o":"m 643 553 l 353 -99 b 119 -329 301 -221 235 -329 b -64 -218 26 -329 -28 -292 l 92 -39 b 176 -169 78 -142 132 -169 b 288 -56 235 -169 269 -86 l 321 19 l 75 557 l -68 665 l 349 665 l 243 579 l 408 214 l 565 567 l 475 665 l 608 665 l 608 663 l 610 665 l 794 665 "},"z":{"ha":725,"x_min":0,"x_max":0,"o":"m 439 596 l 210 596 l 28 379 l 97 665 l 683 665 l 271 69 l 521 69 l 696 300 l 642 7 l 642 0 l 39 0 "},"Z":{"ha":994,"x_min":0,"x_max":0,"o":"m 599 904 l 274 904 l 90 589 l 118 997 l 890 997 l 301 101 l 733 101 l 940 450 l 886 11 l 886 0 l 18 0 "},",":{"ha":418,"x_min":0,"x_max":0,"o":"m 203 -40 b 165 10 203 -6 176 8 b 97 114 151 18 97 39 b 215 225 97 174 144 225 b 339 72 276 225 339 168 b 163 -221 339 -92 197 -199 b 126 -222 144 -231 129 -226 b 131 -197 124 -217 124 -206 b 203 -40 154 -165 203 -110 "},".":{"ha":418,"x_min":0,"x_max":0,"o":"m 90 104 b 208 224 90 171 143 224 b 328 104 275 224 328 171 b 208 -14 328 39 275 -14 b 90 104 143 -14 90 39 "},"´":{"ha":1157,"x_min":0,"x_max":0,"o":"m 478 1010 l 626 1010 l 646 968 l 342 739 l 318 764 b 474 1004 342 799 436 954 "},"é":{"ha":740,"x_min":0,"x_max":0,"o":"m 379 -14 b 53 319 164 -14 53 149 b 388 679 53 514 185 679 b 676 429 503 679 663 622 l 678 429 l 678 360 l 210 360 b 440 126 215 219 303 126 b 672 256 538 126 618 168 b 379 -14 672 99 525 -14 m 367 614 b 210 429 292 614 211 547 l 500 429 b 367 614 500 539 454 614 m 458 1010 l 607 1010 l 626 968 l 322 739 l 299 764 b 454 1004 322 799 417 954 "},"`":{"ha":1157,"x_min":0,"x_max":0,"o":"m 464 1004 b 619 764 501 954 596 799 l 596 739 l 292 968 l 311 1010 l 460 1010 "},"è":{"ha":740,"x_min":0,"x_max":0,"o":"m 379 -14 b 53 319 164 -14 53 149 b 388 679 53 514 185 679 b 676 429 503 679 663 622 l 678 429 l 678 417 l 678 401 l 678 360 l 210 360 b 440 126 215 219 303 126 b 672 256 538 126 618 168 b 379 -14 672 99 525 -14 m 367 614 b 210 429 292 614 211 547 l 500 429 b 367 614 500 539 454 614 m 378 1004 b 533 764 415 954 510 799 l 510 739 l 206 968 l 225 1010 l 374 1010 "},"á":{"ha":758,"x_min":0,"x_max":0,"o":"m 463 474 b 326 619 457 568 396 619 b 200 583 285 619 219 611 b 275 478 260 560 275 525 b 179 381 275 424 229 381 b 85 493 118 381 85 429 b 350 686 85 575 207 686 l 372 686 b 621 444 493 686 621 631 b 619 110 621 388 619 174 l 725 0 l 497 0 l 463 107 b 232 -19 419 32 324 -19 b 63 139 103 -19 63 76 b 231 314 63 236 144 293 b 461 474 331 338 463 353 m 299 85 b 458 189 349 85 428 115 l 461 357 b 331 269 428 314 376 288 b 228 151 256 236 228 204 b 299 85 228 110 263 85 m 481 1010 l 629 1010 l 649 968 l 344 739 l 321 764 b 476 1004 344 799 439 954 "},"à":{"ha":758,"x_min":0,"x_max":0,"o":"m 463 474 b 326 619 457 568 396 619 b 200 583 285 619 219 611 b 275 478 260 560 275 525 b 179 381 275 424 229 381 b 85 493 118 381 85 429 b 350 686 85 575 207 686 l 372 686 b 621 444 493 686 621 631 b 619 110 621 388 619 174 l 725 0 l 497 0 l 463 107 b 232 -19 419 32 324 -19 b 63 139 103 -19 63 76 b 231 314 63 236 144 293 b 461 474 331 338 463 353 m 299 85 b 458 189 349 85 428 115 l 461 357 b 331 269 428 314 376 288 b 228 151 256 236 228 204 b 299 85 228 110 263 85 m 383 1004 b 539 764 421 954 515 799 l 515 739 l 211 968 l 231 1010 l 379 1010 "},"ù":{"ha":844,"x_min":0,"x_max":0,"o":"m 717 150 l 817 81 l 592 -32 l 560 101 b 349 -15 517 28 456 -15 b 126 226 217 -15 126 68 l 126 494 l 28 544 l 210 656 l 210 654 l 294 707 l 293 276 b 422 88 294 160 319 88 b 550 192 515 88 542 153 l 550 493 l 450 544 l 632 656 l 632 654 l 717 707 m 426 1004 b 582 764 464 954 558 799 l 558 739 l 254 968 l 274 1010 l 422 1010 "},"ú":{"ha":844,"x_min":0,"x_max":0,"o":"m 717 150 l 817 81 l 592 -32 l 560 101 b 349 -15 517 28 456 -15 b 126 226 217 -15 126 68 l 126 494 l 28 544 l 210 656 l 210 654 l 294 707 l 293 276 b 422 88 294 160 319 88 b 550 192 515 88 542 153 l 550 493 l 450 544 l 632 656 l 632 654 l 717 707 m 496 1010 l 644 1010 l 664 968 l 360 739 l 336 764 b 492 1004 360 799 454 954 "},"”":{"ha":650,"x_min":0,"x_max":0,"o":"m 175 733 b 138 783 175 768 149 782 b 69 888 124 792 69 813 b 188 999 69 947 117 999 b 311 846 249 999 311 942 b 135 553 311 682 169 575 b 99 551 117 543 101 547 b 103 576 96 557 96 568 b 175 733 126 608 175 664 m 472 733 b 435 783 472 768 446 782 b 367 888 421 792 367 813 b 485 999 367 947 414 999 b 608 846 546 999 608 942 b 432 553 608 682 467 575 b 396 551 414 543 399 547 b 400 576 393 557 393 568 b 472 733 424 608 472 664 "},"“":{"ha":650,"x_min":0,"x_max":0,"o":"m 475 829 b 513 779 475 794 501 781 b 581 675 526 771 581 750 b 463 564 581 615 533 564 b 339 717 401 564 339 621 b 515 1010 339 881 481 988 b 551 1011 533 1019 549 1015 b 547 986 554 1006 554 994 b 475 829 524 954 475 899 m 178 829 b 215 779 178 794 204 781 b 283 675 229 771 283 750 b 165 564 283 615 236 564 b 42 717 104 564 42 621 b 218 1010 42 881 183 988 b 254 1011 236 1019 251 1015 b 250 986 257 1006 257 994 b 178 829 226 954 178 899 "},"!":{"ha":407,"x_min":0,"x_max":0,"o":"m 90 914 b 203 1028 90 976 140 1028 b 317 914 265 1028 317 976 b 314 888 317 904 315 896 l 224 304 l 183 304 l 93 888 b 90 914 90 896 90 904 m 96 93 b 203 201 96 153 143 201 b 311 93 263 201 311 153 b 203 -14 311 33 263 -14 b 96 93 143 -14 96 33 "},"?":{"ha":708,"x_min":0,"x_max":0,"o":"m 57 833 b 331 1029 57 915 183 1029 l 354 1029 b 650 774 479 1029 650 960 b 351 499 650 651 554 519 l 307 304 l 274 304 l 242 601 b 472 793 421 604 472 706 b 282 968 471 908 383 968 b 176 931 239 968 197 958 b 272 826 222 931 272 886 b 164 719 272 767 224 719 b 57 833 104 719 57 760 m 183 93 b 290 201 183 153 231 201 b 399 93 350 201 399 153 b 290 -14 399 33 350 -14 b 183 93 231 -14 183 33 "},"-":{"ha":535,"x_min":0,"x_max":0,"o":"m 83 400 l 451 400 l 451 306 l 83 306 "},"(":{"ha":538,"x_min":0,"x_max":0,"o":"m 496 1092 b 279 443 339 917 279 657 b 496 -206 279 229 339 -31 l 451 -256 b 111 443 254 -83 111 185 b 451 1142 111 706 268 988 "},")":{"ha":538,"x_min":0,"x_max":0,"o":"m 86 1142 b 426 443 269 988 426 706 b 86 -256 426 185 283 -83 l 42 -206 b 258 443 199 -31 258 229 b 42 1092 258 657 199 917 "},":":{"ha":432,"x_min":0,"x_max":0,"o":"m 97 106 b 215 225 97 171 150 225 b 335 106 282 225 335 171 b 215 -14 335 39 282 -14 b 97 106 150 -14 97 39 m 97 558 b 215 679 97 625 150 679 b 335 558 282 679 335 625 b 215 440 335 493 282 440 b 97 558 150 440 97 493 "},";":{"ha":432,"x_min":0,"x_max":0,"o":"m 97 560 b 215 679 97 626 150 679 b 335 560 282 679 335 626 b 215 442 335 494 282 442 b 97 560 150 442 97 494 m 203 -40 b 165 10 203 -6 176 8 b 97 114 151 18 97 39 b 215 225 97 174 144 225 b 339 72 276 225 339 168 b 163 -221 339 -92 197 -199 b 126 -222 144 -231 129 -226 b 131 -197 124 -217 124 -206 b 203 -40 154 -165 203 -110 "},"’":{"ha":353,"x_min":0,"x_max":0,"o":"m 175 733 b 138 783 175 768 149 782 b 69 888 124 792 69 813 b 188 999 69 947 117 999 b 311 846 249 999 311 942 b 135 553 311 682 169 575 b 99 551 117 543 101 547 b 103 576 96 557 96 568 b 175 733 126 608 175 664 "},"«":{"ha":665,"x_min":0,"x_max":0,"o":"m 339 582 l 203 328 l 339 72 l 285 72 l 36 328 l 282 582 m 610 582 l 474 328 l 610 72 l 556 72 l 307 328 l 554 582 "},"ý":{"ha":731,"x_min":0,"x_max":0,"o":"m 243 579 l 408 214 l 565 567 l 475 665 l 608 665 l 608 663 l 610 665 l 794 665 l 643 553 l 353 -99 b 119 -329 301 -221 235 -329 b -64 -218 26 -329 -28 -292 l 92 -39 b 176 -169 78 -142 132 -169 b 288 -56 235 -169 269 -86 l 321 19 l 75 557 l -68 665 l 349 665 m 525 1010 l 674 1010 l 693 968 l 389 739 l 365 764 b 521 1004 389 799 483 954 "},"‘":{"ha":353,"x_min":0,"x_max":0,"o":"m 178 829 b 215 779 178 794 204 781 b 283 675 229 771 283 750 b 165 564 283 615 236 564 b 42 717 104 564 42 621 b 218 1010 42 881 183 988 b 254 1011 236 1019 251 1015 b 250 986 257 1006 257 994 b 178 829 226 954 178 899 "},"»":{"ha":665,"x_min":0,"x_max":0,"o":"m 383 582 l 629 328 l 381 72 l 326 72 l 463 328 l 326 582 m 111 582 l 358 328 l 110 72 l 56 72 l 192 328 l 56 582 "},"&":{"ha":1117,"x_min":0,"x_max":0,"o":"m 825 67 l 707 167 b 381 -15 643 79 550 -15 b 63 239 175 -15 63 90 b 303 524 63 376 172 476 l 283 542 b 156 781 226 593 156 668 b 438 1028 156 907 278 1028 b 694 807 593 1028 694 940 b 504 567 694 714 621 626 l 749 346 l 868 554 l 769 665 l 931 665 l 929 661 l 932 665 l 1089 665 l 961 575 l 793 306 b 1018 99 896 213 986 129 l 1139 0 l 750 0 m 447 71 b 658 208 542 71 615 147 b 343 488 547 304 449 393 b 251 267 275 425 251 356 b 447 71 251 161 322 71 m 394 668 b 458 608 410 653 432 632 b 560 797 524 669 560 742 b 439 964 560 904 507 964 b 317 833 368 964 317 908 b 394 668 317 764 349 711 "},"/":{"ha":506,"x_min":0,"x_max":0,"o":"m 422 1044 l 517 1011 l 76 -17 l -18 17 "},"@":{"ha":1138,"x_min":0,"x_max":0,"o":"m 499 190 b 332 474 396 190 293 274 b 656 768 361 632 493 768 b 756 718 689 768 729 757 l 850 749 l 774 388 l 775 388 b 774 383 774 386 774 385 l 767 353 l 765 353 b 764 336 765 347 764 342 b 804 250 760 310 753 250 b 958 561 865 250 958 328 b 661 917 958 779 815 915 b 193 400 508 918 193 822 b 558 33 193 232 317 33 b 829 97 639 33 771 67 l 846 58 b 476 -24 722 -10 578 -24 b 49 376 197 -24 49 176 b 671 972 49 754 372 972 b 1089 576 858 972 1089 868 b 756 188 1089 253 863 188 b 642 264 699 188 654 218 b 499 190 606 211 549 190 m 575 275 b 638 293 599 275 618 278 l 638 296 b 651 410 638 317 644 382 l 700 631 b 644 707 690 682 667 707 b 474 481 557 707 494 589 b 575 275 451 325 519 275 "},"ˆ":{"ha":1157,"x_min":0,"x_max":0,"o":"m 750 756 l 549 867 l 342 756 l 321 785 l 549 1019 l 775 786 "},"â":{"ha":758,"x_min":0,"x_max":0,"o":"m 463 474 b 326 619 457 568 396 619 b 200 583 285 619 219 611 b 275 478 260 560 275 525 b 179 381 275 424 229 381 b 85 493 118 381 85 429 b 350 686 85 575 207 686 l 372 686 b 621 444 493 686 621 631 b 619 110 621 388 619 174 l 725 0 l 497 0 l 463 107 b 232 -19 419 32 324 -19 b 63 139 103 -19 63 76 b 231 314 63 236 144 293 b 461 474 331 338 463 353 m 582 756 l 381 867 l 174 756 l 153 785 l 381 1019 l 607 786 m 299 85 b 458 189 349 85 428 115 l 461 357 b 331 269 428 314 376 288 b 228 151 256 236 228 204 b 299 85 228 110 263 85 "},"ê":{"ha":740,"x_min":0,"x_max":0,"o":"m 379 -14 b 53 319 164 -14 53 149 b 388 679 53 514 185 679 b 676 429 503 679 663 622 l 678 429 l 678 360 l 210 360 b 440 126 215 219 303 126 b 672 256 538 126 618 168 b 379 -14 672 99 525 -14 m 599 756 l 397 867 l 190 756 l 169 785 l 397 1019 l 624 786 m 367 614 b 210 429 292 614 211 547 l 500 429 b 367 614 500 539 454 614 "},"û":{"ha":844,"x_min":0,"x_max":0,"o":"m 717 150 l 817 81 l 592 -32 l 560 101 b 349 -15 517 28 456 -15 b 126 226 217 -15 126 68 l 126 494 l 28 544 l 210 656 l 210 654 l 294 707 l 293 276 b 422 88 294 160 319 88 b 550 192 515 88 542 153 l 550 493 l 450 544 l 632 656 l 632 654 l 717 707 m 625 756 l 424 867 l 217 756 l 196 785 l 424 1019 l 650 786 "},"É":{"ha":1028,"x_min":0,"x_max":0,"o":"m 678 918 l 374 918 l 374 551 l 553 551 l 683 746 l 683 272 l 553 467 l 374 467 l 374 86 l 736 86 l 958 401 l 903 0 l 35 0 l 179 111 l 179 885 l 35 997 l 883 997 l 911 624 m 621 1301 l 797 1301 l 817 1258 l 429 1071 l 406 1096 "},"È":{"ha":1028,"x_min":0,"x_max":0,"o":"m 179 111 l 179 885 l 35 997 l 883 997 l 911 624 l 678 918 l 374 918 l 374 551 l 553 551 l 683 746 l 683 272 l 553 467 l 374 467 l 374 86 l 736 86 l 958 401 l 903 0 l 35 0 m 664 1096 l 640 1071 l 253 1258 l 272 1301 l 449 1301 "},"Ê":{"ha":1028,"x_min":0,"x_max":0,"o":"m 179 111 l 179 885 l 35 997 l 883 997 l 911 624 l 678 918 l 374 918 l 374 551 l 553 551 l 683 746 l 683 272 l 553 467 l 374 467 l 374 86 l 736 86 l 958 401 l 903 0 l 35 0 m 744 1068 l 515 1179 l 281 1068 l 260 1097 l 515 1332 l 769 1099 "},"¸":{"ha":1157,"x_min":0,"x_max":0,"o":"m 213 -78 b 338 -214 276 -94 338 -147 b 118 -369 338 -331 203 -369 b 21 -335 81 -369 46 -360 b 199 -231 85 -325 199 -321 b 100 -140 199 -189 161 -153 l 204 0 l 274 0 "},"ç":{"ha":725,"x_min":0,"x_max":0,"o":"m 356 -78 b 481 -214 419 -94 481 -147 b 261 -369 481 -331 346 -369 b 164 -335 224 -369 189 -360 b 342 -231 228 -325 342 -321 b 243 -140 342 -189 304 -153 l 339 -11 b 51 311 164 7 51 140 b 414 679 51 533 203 679 b 649 485 544 679 649 597 b 549 378 649 429 613 378 b 450 479 497 378 450 410 b 399 614 450 535 482 614 b 208 389 294 614 208 522 b 440 126 208 219 306 126 b 669 257 526 126 624 165 b 406 -12 669 108 538 -1 "},"¨":{"ha":1157,"x_min":0,"x_max":0,"o":"m 193 894 b 278 981 193 942 231 981 b 364 894 325 981 364 942 b 278 810 364 847 325 810 b 193 894 231 810 193 847 m 444 894 b 529 981 444 942 482 981 b 615 894 576 981 615 942 b 529 810 615 847 576 810 b 444 894 482 810 444 847 "},"ë":{"ha":740,"x_min":0,"x_max":0,"o":"m 379 -14 b 53 319 164 -14 53 149 b 388 679 53 514 185 679 b 676 429 503 679 663 622 l 678 429 l 678 417 l 678 401 l 678 360 l 210 360 b 440 126 215 219 303 126 b 672 256 538 126 618 168 b 379 -14 672 99 525 -14 m 367 614 b 210 429 292 614 211 547 l 500 429 b 367 614 500 539 454 614 m 176 894 b 261 981 176 942 214 981 b 347 894 308 981 347 942 b 261 810 347 847 308 810 b 176 894 214 810 176 847 m 428 894 b 513 981 428 942 465 981 b 599 894 560 981 599 942 b 513 810 599 847 560 810 b 428 894 465 810 428 847 "},"ä":{"ha":758,"x_min":0,"x_max":0,"o":"m 463 474 b 326 619 457 568 396 619 b 200 583 285 619 219 611 b 275 478 260 560 275 525 b 179 381 275 424 229 381 b 85 493 118 381 85 429 b 350 686 85 575 207 686 l 372 686 b 621 444 493 686 621 631 b 619 110 621 388 619 174 l 725 0 l 497 0 l 463 107 b 232 -19 419 32 324 -19 b 63 139 103 -19 63 76 b 231 314 63 236 144 293 b 461 474 331 338 463 353 m 299 85 b 458 189 349 85 428 115 l 461 357 b 331 269 428 314 376 288 b 228 151 256 236 228 204 b 299 85 228 110 263 85 m 168 894 b 253 981 168 942 206 981 b 339 894 300 981 339 942 b 253 810 339 847 300 810 b 168 894 206 810 168 847 m 419 894 b 504 981 419 942 457 981 b 590 894 551 981 590 942 b 504 810 590 847 551 810 b 419 894 457 810 419 847 "},"ı":{"ha":442,"x_min":0,"x_max":0,"o":"m 147 97 l 147 493 l 47 544 l 147 606 l 229 656 l 314 707 l 314 97 l 421 0 l 47 0 "},"í":{"ha":442,"x_min":0,"x_max":0,"o":"m 147 97 l 147 493 l 47 544 l 147 606 l 229 656 l 314 707 l 314 97 l 421 0 l 47 0 m 342 1010 l 490 1010 l 510 968 l 206 739 l 182 764 b 338 1004 206 799 300 954 "},"ì":{"ha":442,"x_min":0,"x_max":0,"o":"m 147 97 l 147 493 l 47 544 l 147 606 l 229 656 l 314 707 l 314 97 l 421 0 l 47 0 m 174 1004 b 329 764 211 954 306 799 l 306 739 l 1 968 l 21 1010 l 169 1010 "},"î":{"ha":442,"x_min":0,"x_max":0,"o":"m 147 97 l 147 493 l 47 544 l 147 606 l 229 656 l 314 707 l 314 97 l 421 0 l 47 0 m 438 756 l 236 867 l 29 756 l 8 785 l 236 1019 l 463 786 "},"ï":{"ha":442,"x_min":0,"x_max":0,"o":"m 147 97 l 147 493 l 47 544 l 147 606 l 229 656 l 314 707 l 314 97 l 421 0 l 47 0 m 24 894 b 108 981 24 942 61 981 b 194 894 156 981 194 942 b 108 810 194 847 156 810 b 24 894 61 810 24 847 m 275 894 b 360 981 275 942 313 981 b 446 894 407 981 446 942 b 360 810 446 847 407 810 b 275 894 313 810 275 847 "},"ó":{"ha":817,"x_min":0,"x_max":0,"o":"m 758 333 b 408 -14 758 118 618 -10 b 58 331 199 -11 58 117 b 408 679 58 539 201 679 b 758 333 626 679 757 529 m 408 614 b 251 332 285 615 251 481 b 408 53 251 183 285 53 b 565 332 531 53 565 183 b 408 614 565 479 531 613 m 501 1010 l 650 1010 l 669 968 l 365 739 l 342 764 b 497 1004 365 799 460 954 "},"ò":{"ha":817,"x_min":0,"x_max":0,"o":"m 758 333 b 408 -14 758 118 618 -10 b 58 331 199 -11 58 117 b 408 679 58 539 201 679 b 758 333 626 679 757 529 m 408 614 b 251 332 285 615 251 481 b 408 53 251 183 285 53 b 565 332 531 53 565 183 b 408 614 565 479 531 613 m 361 1004 b 517 764 399 954 493 799 l 493 739 l 189 968 l 208 1010 l 357 1010 "},"ô":{"ha":817,"x_min":0,"x_max":0,"o":"m 758 333 b 408 -14 758 118 618 -10 b 58 331 199 -11 58 117 b 408 679 58 539 201 679 b 758 333 626 679 757 529 m 408 614 b 251 332 285 615 251 481 b 408 53 251 183 285 53 b 565 332 531 53 565 183 b 408 614 565 479 531 613 m 619 756 l 418 867 l 211 756 l 190 785 l 418 1019 l 644 786 "},"ö":{"ha":817,"x_min":0,"x_max":0,"o":"m 758 333 b 408 -14 758 118 618 -10 b 58 331 199 -11 58 117 b 408 679 58 539 201 679 b 758 333 626 679 757 529 m 408 614 b 251 332 285 615 251 481 b 408 53 251 183 285 53 b 565 332 531 53 565 183 b 408 614 565 479 531 613 m 207 894 b 292 981 207 942 244 981 b 378 894 339 981 378 942 b 292 810 378 847 339 810 b 207 894 244 810 207 847 m 458 894 b 543 981 458 942 496 981 b 629 894 590 981 629 942 b 543 810 629 847 590 810 b 458 894 496 810 458 847 "},"ü":{"ha":844,"x_min":0,"x_max":0,"o":"m 717 150 l 817 81 l 592 -32 l 560 101 b 349 -15 517 28 456 -15 b 126 226 217 -15 126 68 l 126 494 l 28 544 l 210 656 l 210 654 l 294 707 l 293 276 b 422 88 294 160 319 88 b 550 192 515 88 542 153 l 550 493 l 450 544 l 632 656 l 632 654 l 717 707 m 463 894 b 547 981 463 942 500 981 b 633 894 594 981 633 942 b 547 810 633 847 594 810 b 463 894 500 810 463 847 m 211 894 b 296 981 211 942 249 981 b 382 894 343 981 382 942 b 296 810 382 847 343 810 b 211 894 249 810 211 847 "},"Ä":{"ha":1075,"x_min":0,"x_max":0,"o":"m 131 113 l 507 1010 l 581 1010 l 944 89 l 1047 0 l 585 0 l 719 104 l 650 290 l 306 290 l 225 92 l 344 0 l 14 0 m 338 369 l 621 369 l 485 732 m 283 1226 b 372 1317 283 1276 324 1317 b 463 1226 422 1317 463 1276 b 372 1138 463 1176 422 1138 b 283 1226 324 1138 283 1176 m 576 1226 b 665 1317 576 1276 615 1317 b 756 1226 714 1317 756 1276 b 665 1138 756 1176 714 1138 b 576 1226 615 1138 576 1176 "},"Ë":{"ha":1028,"x_min":0,"x_max":0,"o":"m 179 111 l 179 885 l 35 997 l 883 997 l 911 624 l 678 918 l 374 918 l 374 551 l 553 551 l 683 746 l 683 272 l 553 467 l 374 467 l 374 86 l 736 86 l 958 401 l 903 0 l 35 0 m 254 1226 b 343 1317 254 1276 294 1317 b 433 1226 393 1317 433 1276 b 343 1138 433 1176 393 1138 b 254 1226 294 1138 254 1176 m 547 1226 b 636 1317 547 1276 586 1317 b 726 1226 685 1317 726 1276 b 636 1138 726 1176 685 1138 b 547 1226 586 1138 547 1176 "},"Ö":{"ha":1126,"x_min":0,"x_max":0,"o":"m 1063 499 b 563 -32 1064 175 868 -26 b 63 496 258 -28 63 172 b 563 1026 63 810 263 1026 b 1063 499 879 1026 1061 796 m 563 944 b 281 497 357 946 281 722 b 563 50 281 271 356 50 b 844 497 768 50 844 272 b 563 944 844 721 768 943 m 326 1226 b 415 1317 326 1276 367 1317 b 506 1226 465 1317 506 1276 b 415 1138 506 1176 465 1138 b 326 1226 367 1138 326 1176 m 619 1226 b 708 1317 619 1276 658 1317 b 799 1226 757 1317 799 1276 b 708 1138 799 1176 757 1138 b 619 1226 658 1138 619 1176 "},"Ü":{"ha":1118,"x_min":0,"x_max":0,"o":"m 974 893 l 974 431 b 574 -36 974 200 896 -36 b 158 397 250 -36 158 146 l 158 885 l 14 997 l 504 997 l 367 890 l 367 368 b 615 72 367 204 413 72 b 872 444 774 72 872 172 l 871 892 l 736 997 l 1108 997 m 389 1226 b 478 1317 389 1276 429 1317 b 568 1226 528 1317 568 1276 b 478 1138 568 1176 528 1138 b 389 1226 429 1138 389 1176 m 682 1226 b 771 1317 682 1276 721 1317 b 861 1226 819 1317 861 1276 b 771 1138 861 1176 819 1138 b 682 1226 721 1138 682 1176 "},"Ï":{"ha":601,"x_min":0,"x_max":0,"o":"m 394 879 l 394 117 l 546 0 l 56 0 l 200 111 l 200 885 l 56 997 l 546 997 m 65 1226 b 154 1317 65 1276 106 1317 b 244 1226 204 1317 244 1276 b 154 1138 244 1176 204 1138 b 65 1226 106 1138 65 1176 m 358 1226 b 447 1317 358 1276 397 1317 b 538 1226 496 1317 538 1276 b 447 1138 538 1176 496 1138 b 358 1226 397 1138 358 1176 "},"Á":{"ha":1075,"x_min":0,"x_max":0,"o":"m 131 113 l 507 1010 l 581 1010 l 944 89 l 1047 0 l 585 0 l 719 104 l 650 290 l 306 290 l 225 92 l 344 0 l 14 0 m 338 369 l 621 369 l 485 732 m 633 1301 l 810 1301 l 829 1258 l 442 1071 l 418 1096 "},"Ó":{"ha":1126,"x_min":0,"x_max":0,"o":"m 1063 499 b 563 -32 1064 175 868 -26 b 63 496 258 -28 63 172 b 563 1026 63 810 263 1026 b 1063 499 879 1026 1061 796 m 563 944 b 281 497 357 946 281 722 b 563 50 281 271 356 50 b 844 497 768 50 844 272 b 563 944 844 721 768 943 m 669 1301 l 846 1301 l 865 1258 l 478 1071 l 454 1096 "},"Ú":{"ha":1118,"x_min":0,"x_max":0,"o":"m 974 893 l 974 431 b 574 -36 974 200 896 -36 b 158 397 250 -36 158 146 l 158 885 l 14 997 l 504 997 l 367 890 l 367 368 b 615 72 367 204 413 72 b 872 444 774 72 872 172 l 871 892 l 736 997 l 1108 997 m 747 1301 l 924 1301 l 943 1258 l 556 1071 l 532 1096 "},"Í":{"ha":601,"x_min":0,"x_max":0,"o":"m 394 879 l 394 117 l 546 0 l 56 0 l 200 111 l 200 885 l 56 997 l 546 997 m 397 1301 l 574 1301 l 593 1258 l 206 1071 l 182 1096 "},"À":{"ha":1075,"x_min":0,"x_max":0,"o":"m 131 113 l 507 1010 l 581 1010 l 944 89 l 1047 0 l 585 0 l 719 104 l 650 290 l 306 290 l 225 92 l 344 0 l 14 0 m 338 369 l 621 369 l 485 732 m 611 1096 l 588 1071 l 200 1258 l 219 1301 l 396 1301 "},"Ò":{"ha":1126,"x_min":0,"x_max":0,"o":"m 1063 499 b 563 -32 1064 175 868 -26 b 63 496 258 -28 63 172 b 563 1026 63 810 263 1026 b 1063 499 879 1026 1061 796 m 563 944 b 281 497 357 946 281 722 b 563 50 281 271 356 50 b 844 497 768 50 844 272 b 563 944 844 721 768 943 m 699 1096 l 675 1071 l 288 1258 l 307 1301 l 483 1301 "},"Ù":{"ha":1118,"x_min":0,"x_max":0,"o":"m 974 893 l 974 431 b 574 -36 974 200 896 -36 b 158 397 250 -36 158 146 l 158 885 l 14 997 l 504 997 l 367 890 l 367 368 b 615 72 367 204 413 72 b 872 444 774 72 872 172 l 871 892 l 736 997 l 1108 997 m 708 1096 l 685 1071 l 297 1258 l 317 1301 l 493 1301 "},"Ì":{"ha":601,"x_min":0,"x_max":0,"o":"m 394 879 l 394 117 l 546 0 l 56 0 l 200 111 l 200 885 l 56 997 l 546 997 m 410 1096 l 386 1071 l -1 1258 l 18 1301 l 194 1301 "},"Â":{"ha":1075,"x_min":0,"x_max":0,"o":"m 131 113 l 507 1010 l 581 1010 l 944 89 l 1047 0 l 585 0 l 719 104 l 650 290 l 306 290 l 225 92 l 344 0 l 14 0 m 338 369 l 621 369 l 485 732 m 768 1068 l 539 1179 l 304 1068 l 283 1097 l 539 1332 l 793 1099 "},"Ô":{"ha":1126,"x_min":0,"x_max":0,"o":"m 1063 499 b 563 -32 1064 175 868 -26 b 63 496 258 -28 63 172 b 563 1026 63 810 263 1026 b 1063 499 879 1026 1061 796 m 563 944 b 281 497 357 946 281 722 b 563 50 281 271 356 50 b 844 497 768 50 844 272 b 563 944 844 721 768 943 m 793 1068 l 564 1179 l 329 1068 l 308 1097 l 564 1332 l 818 1099 "},"Û":{"ha":1118,"x_min":0,"x_max":0,"o":"m 974 893 l 974 431 b 574 -36 974 200 896 -36 b 158 397 250 -36 158 146 l 158 885 l 14 997 l 504 997 l 367 890 l 367 368 b 615 72 367 204 413 72 b 872 444 774 72 872 172 l 871 892 l 736 997 l 1108 997 m 858 1068 l 629 1179 l 394 1068 l 374 1097 l 629 1332 l 883 1099 "},"Î":{"ha":601,"x_min":0,"x_max":0,"o":"m 394 879 l 394 117 l 546 0 l 56 0 l 200 111 l 200 885 l 56 997 l 546 997 m 532 1068 l 303 1179 l 68 1068 l 47 1097 l 303 1332 l 557 1099 "},"ÿ":{"ha":731,"x_min":0,"x_max":0,"o":"m 643 553 l 353 -99 b 119 -329 301 -221 235 -329 b -64 -218 26 -329 -28 -292 l 92 -39 b 176 -169 78 -142 132 -169 b 288 -56 235 -169 269 -86 l 321 19 l 75 557 l -68 665 l 349 665 l 243 579 l 408 214 l 565 567 l 475 665 l 608 665 l 608 663 l 610 665 l 794 665 m 196 894 b 281 981 196 942 233 981 b 367 894 328 981 367 942 b 281 810 367 847 328 810 b 196 894 233 810 196 847 m 447 894 b 532 981 447 942 485 981 b 618 894 579 981 618 942 b 532 810 618 847 579 810 b 447 894 485 810 447 847 "},"Ÿ":{"ha":1051,"x_min":0,"x_max":0,"o":"m 429 111 l 429 376 l 153 878 l 0 997 l 490 997 l 363 897 l 590 485 l 819 888 l 679 997 l 1051 997 l 921 896 l 624 397 l 624 117 l 775 0 l 285 0 m 365 1226 b 454 1317 365 1276 406 1317 b 544 1226 504 1317 544 1276 b 454 1138 544 1176 504 1138 b 365 1226 406 1138 365 1176 m 658 1226 b 747 1317 658 1276 697 1317 b 838 1226 796 1317 838 1276 b 747 1138 838 1176 796 1138 b 658 1226 697 1138 658 1176 "},"œ":{"ha":1244,"x_min":0,"x_max":0,"o":"m 883 -14 b 654 86 797 -14 703 18 b 408 -14 599 17 483 -12 b 63 331 199 -11 63 117 b 408 679 63 539 201 679 b 660 569 506 679 600 643 b 900 679 719 644 818 679 b 1181 429 1014 679 1167 622 l 1182 429 l 1182 360 l 738 360 l 738 326 b 944 108 738 178 839 108 b 1176 256 1081 108 1122 168 b 883 -14 1176 99 1029 -14 m 408 614 b 251 332 285 615 251 481 b 408 53 251 183 285 53 b 565 332 531 53 565 183 b 408 614 565 479 531 613 m 890 614 b 739 429 804 614 742 543 l 1018 429 b 890 614 1018 551 993 614 "},"æ":{"ha":1147,"x_min":0,"x_max":0,"o":"m 786 -14 b 507 147 649 -14 554 53 b 251 -19 474 51 378 -19 b 63 139 118 -19 63 56 b 236 314 63 236 147 293 b 474 474 339 338 475 353 l 475 474 b 335 619 469 568 407 619 b 204 583 292 619 225 611 b 282 478 265 560 282 525 b 183 381 282 424 235 381 b 86 493 119 381 86 429 b 358 686 86 575 211 686 l 382 686 b 569 589 465 686 533 661 b 803 679 626 646 707 679 b 1083 429 917 679 1069 622 l 1085 429 l 1085 360 l 640 360 l 640 326 b 847 108 640 178 742 108 b 1079 256 983 108 1025 168 b 786 -14 1079 99 932 -14 m 793 614 b 642 429 707 614 644 543 l 921 429 b 793 614 921 551 896 614 m 339 269 b 233 151 261 236 233 204 b 306 85 233 110 269 85 b 483 210 374 85 454 118 b 469 311 474 242 469 276 b 471 353 469 325 469 339 b 339 269 436 313 386 288 "},"Ç":{"ha":1060,"x_min":0,"x_max":0,"o":"m 511 -78 b 642 -214 575 -94 642 -147 b 417 -376 642 -343 501 -376 b 319 -342 379 -376 344 -367 b 492 -231 408 -336 492 -312 b 399 -140 492 -189 460 -153 l 486 -22 b 69 468 231 3 69 206 b 576 1019 69 818 272 1019 b 804 924 646 1019 735 988 l 943 1032 l 943 581 b 569 924 821 769 749 924 b 288 511 403 924 288 750 b 572 67 288 272 374 67 b 943 410 768 67 871 306 l 943 -42 l 797 72 b 553 -25 724 3 640 -22 "},"˚":{"ha":1157,"x_min":0,"x_max":0,"o":"m 160 803 b 311 917 160 879 226 917 b 464 803 396 917 464 879 b 311 690 464 726 396 690 b 160 803 226 690 160 726 m 251 804 b 313 738 251 753 279 738 b 374 804 346 738 374 753 b 313 872 374 856 346 872 b 251 804 279 872 251 856 "},"å":{"ha":758,"x_min":0,"x_max":0,"o":"m 463 474 b 326 619 457 568 396 619 b 200 583 285 619 219 611 b 275 478 260 560 275 525 b 179 381 275 424 229 381 b 85 493 118 381 85 429 b 350 686 85 575 207 686 l 372 686 b 621 444 493 686 621 631 b 619 110 621 388 619 174 l 725 0 l 497 0 l 463 107 b 232 -19 419 32 324 -19 b 63 139 103 -19 63 76 b 231 314 63 236 144 293 b 461 474 331 338 463 353 m 243 897 b 394 1011 243 974 310 1011 b 547 897 479 1011 547 974 b 394 785 547 821 479 785 b 243 897 310 785 243 821 m 299 85 b 458 189 349 85 428 115 l 461 357 b 331 269 428 314 376 288 b 228 151 256 236 228 204 b 299 85 228 110 263 85 m 335 899 b 396 832 335 847 363 832 b 457 899 429 832 457 847 b 396 967 457 950 429 967 b 335 899 363 967 335 950 "},"Å":{"ha":1075,"x_min":0,"x_max":0,"o":"m 131 113 l 507 1010 l 581 1010 l 944 89 l 1047 0 l 585 0 l 719 104 l 650 290 l 306 290 l 225 92 l 344 0 l 14 0 m 365 1225 b 522 1346 365 1306 435 1346 b 682 1225 611 1346 682 1306 b 522 1104 682 1143 611 1104 b 365 1225 435 1104 365 1143 m 338 369 l 621 369 l 485 732 m 461 1225 b 524 1154 461 1171 489 1154 b 588 1225 560 1154 588 1171 b 524 1299 588 1281 560 1299 b 461 1225 489 1299 461 1281 "},"˜":{"ha":1157,"x_min":0,"x_max":0,"o":"m 333 672 b 146 736 271 671 215 736 b 54 679 83 736 56 713 l 39 682 b 160 847 43 761 83 847 b 346 788 229 847 292 788 b 438 844 418 788 436 825 l 453 842 b 333 672 449 763 417 674 "},"ñ":{"ha":867,"x_min":0,"x_max":0,"o":"m 579 97 l 581 396 b 556 533 581 469 576 501 b 451 579 536 564 501 579 b 314 463 350 579 321 501 l 314 97 l 422 0 l 47 0 l 147 97 l 147 483 l 47 544 l 147 611 l 147 613 l 272 696 l 304 560 b 522 679 349 635 414 679 b 747 438 654 679 747 596 l 746 97 l 854 0 l 479 0 m 557 797 b 369 861 494 796 439 861 b 278 804 307 861 279 838 l 263 807 b 383 972 267 886 307 972 b 569 913 453 972 515 913 b 661 969 642 913 660 950 l 676 967 b 557 797 672 888 640 799 "},"ã":{"ha":758,"x_min":0,"x_max":0,"o":"m 463 474 b 326 619 457 568 396 619 b 200 583 285 619 219 611 b 275 478 260 560 275 525 b 179 381 275 424 229 381 b 85 493 118 381 85 429 b 350 686 85 575 207 686 l 372 686 b 621 444 493 686 621 631 b 619 110 621 388 619 174 l 725 0 l 497 0 l 463 107 b 232 -19 419 32 324 -19 b 63 139 103 -19 63 76 b 231 314 63 236 144 293 b 461 474 331 338 463 353 m 482 797 b 294 861 419 796 364 861 b 203 804 232 861 204 838 l 188 807 b 308 972 192 886 232 972 b 494 913 378 972 440 913 b 586 969 567 913 585 950 l 601 967 b 482 797 597 888 565 799 m 299 85 b 458 189 349 85 428 115 l 461 357 b 331 269 428 314 376 288 b 228 151 256 236 228 204 b 299 85 228 110 263 85 "},"õ":{"ha":817,"x_min":0,"x_max":0,"o":"m 758 333 b 408 -14 758 118 618 -10 b 58 331 199 -11 58 117 b 408 679 58 539 201 679 b 758 333 626 679 757 529 m 408 614 b 251 332 285 615 251 481 b 408 53 251 183 285 53 b 565 332 531 53 565 183 b 408 614 565 479 531 613 m 521 797 b 333 861 458 796 403 861 b 242 804 271 861 243 838 l 226 807 b 347 972 231 886 271 972 b 533 913 417 972 479 913 b 625 969 606 913 624 950 l 640 967 b 521 797 636 888 604 799 "},"Ý":{"ha":1051,"x_min":0,"x_max":0,"o":"m 429 111 l 429 376 l 153 878 l 0 997 l 490 997 l 363 897 l 590 485 l 819 888 l 679 997 l 1051 997 l 921 896 l 624 397 l 624 117 l 775 0 l 285 0 m 738 1301 l 914 1301 l 933 1258 l 546 1071 l 522 1096 "},"Ã":{"ha":1075,"x_min":0,"x_max":0,"o":"m 131 113 l 507 1010 l 581 1010 l 944 89 l 1047 0 l 585 0 l 719 104 l 650 290 l 306 290 l 225 92 l 344 0 l 14 0 m 638 1111 b 424 1181 567 1110 503 1181 b 319 1119 353 1181 321 1156 l 301 1122 b 439 1301 306 1208 353 1301 b 651 1236 518 1301 590 1236 b 756 1299 733 1236 754 1278 l 774 1296 b 638 1111 769 1210 732 1113 m 338 369 l 621 369 l 485 732 "},"Õ":{"ha":1126,"x_min":0,"x_max":0,"o":"m 1063 499 b 563 -32 1064 175 868 -26 b 63 496 258 -28 63 172 b 563 1026 63 810 263 1026 b 1063 499 879 1026 1061 796 m 563 944 b 281 497 357 946 281 722 b 563 50 281 271 356 50 b 844 497 768 50 844 272 b 563 944 844 721 768 943 m 690 1117 b 476 1186 619 1115 556 1186 b 372 1125 406 1186 374 1161 l 354 1128 b 492 1307 358 1214 406 1307 b 704 1242 571 1307 643 1242 b 808 1304 786 1242 807 1283 l 826 1301 b 690 1117 822 1215 785 1118 "},"Ñ":{"ha":1132,"x_min":0,"x_max":0,"o":"m 969 888 l 969 -21 l 257 708 l 257 107 l 394 0 l 22 0 l 164 110 l 164 865 l 21 997 l 268 997 l 876 378 l 876 890 l 739 997 l 1111 997 m 665 1115 b 451 1185 594 1114 531 1185 b 347 1124 381 1185 349 1160 l 329 1126 b 467 1306 333 1213 381 1306 b 679 1240 546 1306 618 1240 b 783 1303 761 1240 782 1282 l 801 1300 b 665 1115 797 1214 760 1117 "},"Œ":{"ha":1599,"x_min":0,"x_max":0,"o":"m 749 0 b 563 -32 692 -19 631 -31 b 63 496 258 -28 63 172 b 563 1026 63 810 263 1026 b 743 997 629 1026 689 1015 l 1501 997 l 1515 638 l 1326 918 l 986 918 l 986 551 l 1165 551 l 1296 746 l 1296 272 l 1165 467 l 986 467 l 986 86 l 1349 86 l 1571 401 l 1515 0 l 749 0 m 563 944 b 281 497 357 946 281 722 b 563 50 281 271 356 50 b 792 163 674 50 753 92 l 792 799 b 563 944 769 881 681 943 "},"Æ":{"ha":1429,"x_min":0,"x_max":0,"o":"m 622 111 l 622 450 l 385 450 l 192 83 l 294 0 l -33 0 l 101 132 l 533 917 l 433 997 l 1332 997 l 1346 638 l 1157 918 l 817 918 l 817 531 l 996 531 l 1126 725 l 1126 251 l 996 446 l 817 446 l 817 86 l 1179 86 l 1401 401 l 1346 0 l 478 0 m 426 529 l 622 529 l 622 899 "},"€":{"ha":935,"x_min":0,"x_max":0,"o":"m 83 431 l 174 431 b 172 468 172 443 172 456 b 175 561 172 500 174 531 l 69 561 l 83 644 l 186 644 b 571 1019 229 885 363 1019 b 760 940 639 1019 706 993 l 851 1032 l 851 667 b 776 813 817 736 806 767 b 603 943 731 885 675 943 b 385 644 489 943 411 825 l 750 644 l 736 561 l 378 561 b 376 511 376 544 376 528 b 378 431 376 483 376 457 l 708 431 l 694 347 l 388 347 b 592 51 411 176 476 51 b 789 201 699 51 744 124 b 851 324 813 243 832 286 l 851 -42 l 754 56 b 561 -25 697 -3 635 -25 b 182 347 358 -25 219 129 l 69 347 "},"$":{"ha":889,"x_min":0,"x_max":0,"o":"m 397 -4 b 224 61 325 4 268 29 l 114 -15 l 118 456 b 397 75 203 240 286 103 l 397 421 b 338 446 376 429 356 438 b 111 733 276 475 111 560 b 397 1014 111 911 238 997 l 397 1088 l 472 1088 l 472 1017 b 656 951 535 1013 604 985 l 765 1029 l 763 556 b 472 939 654 806 601 919 l 472 606 l 547 575 b 778 268 656 521 778 446 b 472 -8 778 119 667 -1 l 472 -89 l 397 -89 m 610 222 b 472 388 610 301 544 350 l 472 71 b 610 222 551 81 610 128 m 272 794 b 397 639 272 715 315 678 l 397 940 b 272 794 328 926 272 864 "},"G":{"ha":1175,"x_min":0,"x_max":0,"o":"m 868 94 b 551 -25 783 4 664 -25 b 69 468 247 -25 69 188 b 604 1019 69 818 283 1019 b 844 922 674 1019 769 988 l 985 1032 l 985 581 b 597 924 863 769 776 924 b 288 511 414 924 288 750 b 586 67 288 272 368 67 b 797 253 721 67 793 131 l 797 376 l 663 475 l 1154 475 l 1006 364 l 1006 -44 m 660 478 l 663 475 l 660 475 "}}}
